<svg width="32" height="19" viewBox="0 0 32 19" fill="none" xmlns="http://www.w3.org/2000/svg">
<path d="M15.103 1.22302L0.772679 16.43C0.533449 16.6837 0.399994 17.0208 0.399994 17.3714C0.399994 17.7219 0.533449 18.059 0.772679 18.3128L0.788871 18.3291C0.904846 18.4526 1.04444 18.5508 1.19917 18.618C1.3539 18.6852 1.52052 18.7198 1.6889 18.7198C1.85729 18.7198 2.02391 18.6852 2.17864 18.618C2.33337 18.5508 2.47296 18.4526 2.58894 18.3291L16.0827 4.00901L29.571 18.3291C29.687 18.4526 29.8266 18.5508 29.9813 18.618C30.1361 18.6852 30.3027 18.7198 30.4711 18.7198C30.6395 18.7198 30.8061 18.6852 30.9608 18.618C31.1155 18.5508 31.2551 18.4526 31.3711 18.3291L31.3873 18.3128C31.6265 18.059 31.76 17.7219 31.76 17.3714C31.76 17.0208 31.6265 16.6837 31.3873 16.43L17.0569 1.22302C16.9309 1.08929 16.7793 0.982814 16.6114 0.910066C16.4435 0.837317 16.2627 0.799805 16.08 0.799805C15.8973 0.799805 15.7165 0.837317 15.5486 0.910066C15.3806 0.982814 15.2291 1.08929 15.103 1.22302Z" fill="white"/>
</svg>
