<svg width="28" height="30" viewBox="0 0 28 30" fill="none" xmlns="http://www.w3.org/2000/svg">
<path d="M0 29.0625C0 28.8086 0.0865885 28.5889 0.259766 28.4033L16.8848 10.5908C17.0579 10.4053 17.263 10.3125 17.5 10.3125C17.737 10.3125 17.9421 10.4053 18.1152 10.5908C18.2884 10.7764 18.375 10.9961 18.375 11.25C18.375 11.5039 18.2884 11.7236 18.1152 11.9092L1.49023 29.7217C1.31706 29.9072 1.11198 30 0.875 30C0.638021 30 0.432943 29.9072 0.259766 29.7217C0.0865885 29.5361 0 29.3164 0 29.0625ZM19.25 0H21V3.75H19.25V0ZM16.4199 5.78613L13.9316 3.13477L15.1758 1.80176L17.6504 4.46777L16.4199 5.78613ZM15.75 9.375H12.25V7.5H15.75V9.375ZM19.25 13.125H21V16.875H19.25V13.125ZM23.8301 11.0889L26.3184 13.7402L25.0742 15.0732L22.5996 12.4072L23.8301 11.0889ZM28 7.5V9.375H24.5V7.5H28ZM23.8301 5.78613L22.5996 4.46777L25.0742 1.80176L26.3184 3.13477L23.8301 5.78613ZM20.125 7.5C20.362 7.5 20.5671 7.59277 20.7402 7.77832C20.9134 7.96387 21 8.18359 21 8.4375C21 8.69141 20.9134 8.91113 20.7402 9.09668C20.5671 9.28223 20.362 9.375 20.125 9.375C19.888 9.375 19.6829 9.28223 19.5098 9.09668C19.3366 8.91113 19.25 8.69141 19.25 8.4375C19.25 8.18359 19.3366 7.96387 19.5098 7.77832C19.6829 7.59277 19.888 7.5 20.125 7.5Z" fill="url(#paint0_linear_153_236)"/>
<defs>
<linearGradient id="paint0_linear_153_236" x1="14" y1="0" x2="14" y2="30" gradientUnits="userSpaceOnUse">
<stop stop-color="#9747FF"/>
<stop offset="1" stop-color="#FF008B"/>
</linearGradient>
</defs>
</svg>
