<svg width="17" height="23" viewBox="0 0 17 23" fill="none" xmlns="http://www.w3.org/2000/svg">
<path fill-rule="evenodd" clip-rule="evenodd" d="M8.5 0.881348C13.1993 0.881348 17 4.34292 17 8.62289C17 14.429 8.5 23 8.5 23C8.5 23 0 14.429 0 8.62289C0 4.34292 3.80071 0.881348 8.5 0.881348ZM2.42852 8.62296C2.42852 11.7749 5.97424 16.5967 8.49995 19.5496C11.0742 16.5746 14.5714 11.808 14.5714 8.62296C14.5714 5.57058 11.8514 3.09329 8.49995 3.09329C5.14852 3.09329 2.42852 5.57058 2.42852 8.62296ZM8.49998 11.3876C6.8234 11.3876 5.46426 10.1497 5.46426 8.62272C5.46426 7.09574 6.8234 5.85788 8.49998 5.85788C10.1766 5.85788 11.5357 7.09574 11.5357 8.62272C11.5357 10.1497 10.1766 11.3876 8.49998 11.3876Z" fill="url(#paint0_linear_211_178)"/>
<defs>
<linearGradient id="paint0_linear_211_178" x1="8.5" y1="0.881348" x2="8.5" y2="23" gradientUnits="userSpaceOnUse">
<stop stop-color="#9747FF"/>
<stop offset="1" stop-color="#FF008B"/>
</linearGradient>
</defs>
</svg>
