<svg width="21" height="21" viewBox="0 0 21 21" fill="none" xmlns="http://www.w3.org/2000/svg">
<path fill-rule="evenodd" clip-rule="evenodd" d="M12.8791 5.3753C13.7029 5.10897 14.6533 5.11419 15.4301 5.51238C17.2239 6.43409 18.0007 8.81016 17.2787 11.3272C16.955 12.4565 16.3844 13.5532 15.1781 14.6589C13.9718 15.766 12.2981 16.4188 11.5226 16.4188C11.4574 16.4198 11.3926 16.408 11.3319 16.3839C11.2712 16.3599 11.2159 16.3241 11.1691 16.2786C11.1223 16.2331 11.0849 16.1788 11.0591 16.1189C11.0333 16.0589 11.0196 15.9945 11.0187 15.9292C11.0187 15.659 11.2485 15.4396 11.5226 15.4396C12.4091 15.4396 13.2016 14.9566 14.1402 14.2464C14.8583 13.702 15.4197 13.0061 15.7291 12.4004C16.3231 11.2411 16.3427 9.60653 15.3831 9.17179C15.1603 9.42464 14.8858 9.62661 14.5781 9.76402C14.2704 9.90143 13.9367 9.97105 13.5997 9.96816C12.0331 9.96816 11.1101 8.70832 11.1506 7.56729C11.1884 6.47717 11.8817 5.70038 12.8791 5.3753ZM5.0459 5.3753C5.86969 5.10897 6.82012 5.11419 7.59691 5.51238C9.39071 6.43409 10.1675 8.81016 9.44554 11.3272C9.12177 12.4565 8.55125 13.5532 7.34494 14.6589C6.13863 15.766 4.46494 16.4188 3.68945 16.4188C3.62419 16.4198 3.55937 16.408 3.4987 16.3839C3.43803 16.3599 3.3827 16.3241 3.33589 16.2786C3.28907 16.2331 3.25169 16.1788 3.22589 16.1189C3.20009 16.0589 3.18637 15.9945 3.18552 15.9292C3.18552 15.659 3.41529 15.4396 3.68945 15.4396C4.57591 15.4396 5.36837 14.9566 6.30704 14.2464C7.02508 13.702 7.58646 13.0061 7.89587 12.4004C8.48989 11.2411 8.50947 9.60653 7.54991 9.17179C7.08906 9.67572 6.48721 9.96816 5.76655 9.96816C4.19991 9.96816 3.2769 8.70832 3.31738 7.56729C3.35524 6.47717 4.04847 5.70038 5.0459 5.3753Z" fill="#9B4172"/>
</svg>
