<svg width="41" height="31" viewBox="0 0 41 31" fill="none" xmlns="http://www.w3.org/2000/svg">
<path d="M10.7804 0L1.11967e-06 10.8681V7.21525L7.15706 0H10.7804ZM28.7179 0L24.9664 3.782C24.1501 3.3085 23.2644 2.96845 22.3424 2.7745L25.0946 0H28.7179ZM25.9325 8.19692C25.3075 7.18688 24.4168 6.37135 23.3597 5.84097C22.3025 5.31058 21.1201 5.08611 19.9439 5.1925C18.553 5.31467 17.2397 5.8916 16.204 6.8355C15.1682 7.7794 14.4667 9.03858 14.2062 10.4214C13.9457 11.8043 14.1404 13.235 14.7608 14.496C15.3812 15.757 16.3932 16.7792 17.6429 17.4069C18.8925 18.0347 20.3114 18.2337 21.6836 17.9736C23.0557 17.7135 24.3061 17.0087 25.2443 15.9663C26.1825 14.9239 26.7572 13.601 26.881 12.199C27.0048 10.797 26.6708 9.39256 25.9299 8.1995L25.9325 8.19692ZM27.7775 6.33692C28.3028 7.068 28.7205 7.87917 29.0075 8.75233L37.6585 0.0335834C37.492 0.011462 37.3242 0.000244013 37.1562 0H34.0633L27.7775 6.33692ZM14.0938 20.6667C13.0745 20.6674 12.0973 21.0758 11.3766 21.8024C10.6559 22.5289 10.2507 23.5142 10.25 24.5417V31H30.75V24.5417C30.7507 24.0326 30.6517 23.5284 30.4588 23.058C30.2659 22.5875 29.9828 22.1601 29.6257 21.8001C29.2686 21.4401 28.8446 21.1547 28.378 20.9602C27.9113 20.7658 27.4112 20.666 26.9062 20.6667H14.0938ZM26.9062 18.0833C27.4623 18.0833 28.0004 18.1557 28.5155 18.29L41 5.69883V3.875C41 3.33508 40.8898 2.82358 40.6925 2.356L29.1613 13.9836C28.744 15.5401 27.9212 16.9556 26.7781 18.0833H26.9062ZM31.7955 20.3696C32.3721 21.0542 32.8077 21.8602 33.0614 22.7463L41 14.7431V11.0903L31.7955 20.3696ZM33.3125 31V27.8819L41 20.1319V23.7847L33.8429 31H33.3125ZM7.6875 30.2431V26.5902L3.34406 30.969C3.50806 30.9897 3.67719 31 3.84375 31H6.93669L7.6875 30.2431ZM11.7209 13.485C11.9156 14.4279 12.259 15.3192 12.7203 16.1303L0.307501 28.644C0.104212 28.1638 -0.0003948 27.6471 1.11967e-06 27.125V25.2986L11.7209 13.4824V13.485ZM19.7492 0L1.11967e-06 19.9097V16.2569L16.1258 0H19.7492Z" fill="url(#paint0_linear_153_235)"/>
<defs>
<linearGradient id="paint0_linear_153_235" x1="20.5" y1="0" x2="20.5" y2="31" gradientUnits="userSpaceOnUse">
<stop stop-color="#9747FF"/>
<stop offset="1" stop-color="#FF008B"/>
</linearGradient>
</defs>
</svg>
