<svg width="27" height="28" viewBox="0 0 27 28" fill="none" xmlns="http://www.w3.org/2000/svg">
<path d="M26.846 3.01656V21.2741C26.846 21.8328 26.624 22.3687 26.229 22.7638C25.834 23.1588 25.2982 23.3808 24.7396 23.3808C24.1809 23.3808 23.6452 23.1588 23.2502 22.7638C22.8551 22.3687 22.6332 21.8328 22.6332 21.2741V8.10761L3.76194 26.9779C3.36624 27.3736 2.82954 27.596 2.26993 27.596C1.71032 27.596 1.17363 27.3736 0.777923 26.9779C0.382217 26.5821 0.159912 26.0453 0.159912 25.4857C0.159912 24.926 0.382217 24.3892 0.777923 23.9935L19.6492 5.1232H6.48442C5.92578 5.1232 5.39001 4.90125 4.99499 4.50618C4.59997 4.1111 4.37805 3.57527 4.37805 3.01656C4.37805 2.45784 4.59997 1.92201 4.99499 1.52693C5.39001 1.13186 5.92578 0.909912 6.48442 0.909912H24.7396C25.2982 0.909912 25.834 1.13186 26.229 1.52693C26.624 1.92201 26.846 2.45784 26.846 3.01656Z" fill="white"/>
</svg>
